<svg xmlns="http://www.w3.org/2000/svg" width="860" height="560" viewBox="0 0 860 560">
<defs>
  <marker id="arrow" markerWidth="10" markerHeight="7" refX="10" refY="3.5" orient="auto">
    <polygon points="0 0, 10 3.5, 0 7" fill="#333"/>
  </marker>
</defs>
<rect x="60" y="30" width="160" height="50" rx="6" fill="#f7f7f7" stroke="#333"/>
<text x="140" y="60" text-anchor="middle" font-family="Arial" font-size="14">开始</text>

<rect x="60" y="120" width="260" height="50" rx="6" fill="#fff" stroke="#333"/>
<text x="190" y="150" text-anchor="middle" font-family="Arial" font-size="14">收集本地 host 候选</text>

<rect x="60" y="210" width="300" height="50" rx="6" fill="#fff" stroke="#333"/>
<text x="210" y="240" text-anchor="middle" font-family="Arial" font-size="14">向 STUN 请求 srflx 候选</text>

<polygon points="80,320 260,320 290,345 260,370 80,370 50,345" fill="#fff8e1" stroke="#333"/>
<text x="170" y="350" text-anchor="middle" font-family="Arial" font-size="14">是否需要 TURN</text>

<rect x="380" y="300" width="300" height="50" rx="6" fill="#fff" stroke="#333"/>
<text x="530" y="330" text-anchor="middle" font-family="Arial" font-size="14">向 TURN 申请 relay 候选</text>

<rect x="60" y="420" width="300" height="50" rx="6" fill="#fff" stroke="#333"/>
<text x="210" y="450" text-anchor="middle" font-family="Arial" font-size="14">通过信令交换候选</text>

<rect x="60" y="500" width="320" height="50" rx="6" fill="#fff" stroke="#333"/>
<text x="220" y="530" text-anchor="middle" font-family="Arial" font-size="14">连通性检测并提名最佳候选</text>

<line x1="140" y1="80" x2="140" y2="120" stroke="#333" marker-end="url(#arrow)"/>
<line x1="190" y1="170" x2="190" y2="210" stroke="#333" marker-end="url(#arrow)"/>
<line x1="210" y1="260" x2="170" y2="320" stroke="#333" marker-end="url(#arrow)"/>

<line x1="290" y1="345" x2="380" y2="325" stroke="#333" marker-end="url(#arrow)"/>
<line x1="530" y1="350" x2="360" y2="445" stroke="#333" marker-end="url(#arrow)"/>

<line x1="170" y1="370" x2="210" y2="420" stroke="#333" marker-end="url(#arrow)"/>
<line x1="210" y1="470" x2="220" y2="500" stroke="#333" marker-end="url(#arrow)"/>
</svg>