<svg xmlns="http://www.w3.org/2000/svg" width="1100" height="620" viewBox="0 0 1100 620">
<defs>
  <marker id="arrow" markerWidth="10" markerHeight="7" refX="10" refY="3.5" orient="auto">
    <polygon points="0 0, 10 3.5, 0 7" fill="#333"/>
  </marker>
</defs>
<rect x="0" y="0" width="100%" height="100%" fill="#ffffff"/>
<rect x="60" y="40" width="160" height="40" rx="6" fill="#f2f2f2" stroke="#333"/>
<text x="140" y="66" text-anchor="middle" font-family="Arial" font-size="14">Peer A</text>
<rect x="330" y="40" width="200" height="40" rx="6" fill="#f2f2f2" stroke="#333"/>
<text x="430" y="66" text-anchor="middle" font-family="Arial" font-size="14">Signaling Server</text>
<rect x="610" y="40" width="160" height="40" rx="6" fill="#f2f2f2" stroke="#333"/>
<text x="690" y="66" text-anchor="middle" font-family="Arial" font-size="14">Peer B</text>
<rect x="860" y="40" width="180" height="40" rx="6" fill="#f2f2f2" stroke="#333"/>
<text x="950" y="66" text-anchor="middle" font-family="Arial" font-size="14">STUN/TURN</text>

<line x1="140" y1="90" x2="140" y2="580" stroke="#bbb" stroke-dasharray="6 6"/>
<line x1="430" y1="90" x2="430" y2="580" stroke="#bbb" stroke-dasharray="6 6"/>
<line x1="690" y1="90" x2="690" y2="580" stroke="#bbb" stroke-dasharray="6 6"/>
<line x1="950" y1="90" x2="950" y2="580" stroke="#bbb" stroke-dasharray="6 6"/>

<line x1="140" y1="120" x2="430" y2="120" stroke="#333" marker-end="url(#arrow)"/>
<text x="285" y="112" text-anchor="middle" font-family="Arial" font-size="12">join(room)</text>

<line x1="690" y1="150" x2="430" y2="150" stroke="#333" marker-end="url(#arrow)"/>
<text x="560" y="142" text-anchor="middle" font-family="Arial" font-size="12">join(room)</text>

<line x1="140" y1="190" x2="430" y2="190" stroke="#333" marker-end="url(#arrow)"/>
<text x="285" y="182" text-anchor="middle" font-family="Arial" font-size="12">offer (SDP)</text>

<line x1="430" y1="220" x2="690" y2="220" stroke="#333" marker-end="url(#arrow)"/>
<text x="560" y="212" text-anchor="middle" font-family="Arial" font-size="12">offer</text>

<line x1="690" y1="250" x2="430" y2="250" stroke="#333" marker-end="url(#arrow)"/>
<text x="560" y="242" text-anchor="middle" font-family="Arial" font-size="12">answer (SDP)</text>

<line x1="430" y1="280" x2="140" y2="280" stroke="#333" marker-end="url(#arrow)"/>
<text x="285" y="272" text-anchor="middle" font-family="Arial" font-size="12">answer</text>

<line x1="140" y1="320" x2="430" y2="320" stroke="#333" marker-end="url(#arrow)"/>
<text x="285" y="312" text-anchor="middle" font-family="Arial" font-size="12">ice-candidate</text>

<line x1="430" y1="350" x2="690" y2="350" stroke="#333" marker-end="url(#arrow)"/>
<text x="560" y="342" text-anchor="middle" font-family="Arial" font-size="12">ice-candidate</text>

<line x1="690" y1="380" x2="430" y2="380" stroke="#333" marker-end="url(#arrow)"/>
<text x="560" y="372" text-anchor="middle" font-family="Arial" font-size="12">ice-candidate</text>

<line x1="430" y1="410" x2="140" y2="410" stroke="#333" marker-end="url(#arrow)"/>
<text x="285" y="402" text-anchor="middle" font-family="Arial" font-size="12">ice-candidate</text>

<line x1="140" y1="450" x2="950" y2="450" stroke="#666" marker-end="url(#arrow)"/>
<line x1="950" y1="480" x2="140" y2="480" stroke="#666" marker-end="url(#arrow)"/>
<text x="545" y="442" text-anchor="middle" font-family="Arial" font-size="12">STUN binding</text>

<line x1="690" y1="510" x2="950" y2="510" stroke="#666" marker-end="url(#arrow)"/>
<line x1="950" y1="540" x2="690" y2="540" stroke="#666" marker-end="url(#arrow)"/>
<text x="820" y="502" text-anchor="middle" font-family="Arial" font-size="12">STUN binding</text>

<line x1="180" y1="580" x2="650" y2="580" stroke="#2a7" stroke-width="2" marker-end="url(#arrow)"/>
<text x="415" y="572" text-anchor="middle" font-family="Arial" font-size="12">DTLS handshake → SRTP/SCTP</text>
</svg>